<svg xmlns="http://www.w3.org/2000/svg" xmlns:xlink="http://www.w3.org/1999/xlink" width="1080" zoomAndPan="magnify" viewBox="0 0 810 809.999993" height="1080" preserveAspectRatio="xMidYMid meet" version="1.0"><defs><clipPath id="5764025259"><path d="M 46.359375 60 L 403 60 L 403 761 L 46.359375 761 Z M 46.359375 60 " clip-rule="nonzero"/></clipPath><clipPath id="4ec56ecb62"><path d="M 422 28.476562 L 492 28.476562 L 492 98 L 422 98 Z M 422 28.476562 " clip-rule="nonzero"/></clipPath><clipPath id="ce0cdf0add"><path d="M 694 365 L 763.359375 365 L 763.359375 435 L 694 435 Z M 694 365 " clip-rule="nonzero"/></clipPath><clipPath id="164fb86573"><path d="M 414 712 L 484 712 L 484 781.476562 L 414 781.476562 Z M 414 712 " clip-rule="nonzero"/></clipPath></defs><g clip-path="url(#5764025259)"><path fill="#ffffff" d="M 236.46875 667.878906 C 238.417969 667.878906 240.363281 668.324219 242.160156 669.210938 C 245.953125 671.109375 248.574219 674.773438 249.148438 678.980469 C 253.367188 710.839844 280.652344 734.859375 312.578125 734.859375 C 348.050781 734.859375 376.90625 705.984375 376.90625 670.5 L 376.90625 150.328125 C 376.90625 114.828125 348.050781 85.949219 312.578125 85.949219 C 280.652344 85.949219 253.367188 109.96875 249.148438 141.839844 C 248.574219 146.039062 245.953125 149.699219 242.160156 151.601562 C 238.390625 153.488281 233.875 153.386719 230.179688 151.277344 C 220.117188 145.582031 209.558594 142.695312 198.777344 142.695312 C 163.277344 142.695312 134.425781 171.574219 134.425781 207.074219 C 134.425781 222.078125 139.738281 236.308594 149.773438 248.257812 C 153.046875 252.15625 153.695312 257.609375 151.449219 262.164062 C 149.175781 266.722656 144.160156 269.582031 139.367188 269.257812 C 138.992188 269.230469 136.921875 269.019531 136.546875 268.957031 C 136.492188 268.957031 136.445312 268.957031 136.417969 268.957031 C 100.699219 268.957031 71.894531 297.8125 71.894531 333.253906 C 71.894531 368.753906 100.75 397.628906 136.246094 397.628906 C 143.308594 397.628906 149.027344 403.34375 149.027344 410.417969 C 149.027344 417.480469 143.308594 423.199219 136.246094 423.199219 C 100.75 423.199219 71.894531 452.074219 71.894531 487.558594 C 71.894531 523.042969 100.75 551.917969 136.246094 551.917969 C 137.46875 551.714844 138.417969 551.609375 139.367188 551.554688 C 144.207031 551.117188 149.175781 554.09375 151.449219 558.648438 C 153.695312 563.207031 153.046875 568.660156 149.773438 572.554688 C 139.738281 584.503906 134.425781 598.746094 134.425781 613.753906 C 134.425781 649.238281 163.277344 678.117188 198.777344 678.117188 C 209.558594 678.117188 220.117188 675.238281 230.179688 669.542969 C 232.125 668.429688 234.296875 667.878906 236.46875 667.878906 Z M 312.578125 760.429688 C 273.5625 760.429688 239.515625 734.847656 227.554688 698.742188 C 218.21875 702.023438 208.585938 703.683594 198.777344 703.683594 C 149.203125 703.683594 108.863281 663.351562 108.863281 613.753906 C 108.863281 600.359375 111.832031 587.441406 117.574219 575.539062 C 76.9375 566.910156 46.332031 530.742188 46.332031 487.558594 C 46.332031 454.832031 63.882812 426.144531 90.066406 410.417969 C 63.882812 394.671875 46.332031 365.980469 46.332031 333.253906 C 46.332031 290.070312 76.9375 253.902344 117.574219 245.273438 C 111.832031 233.375 108.863281 220.449219 108.863281 207.074219 C 108.863281 157.476562 149.203125 117.128906 198.777344 117.128906 C 208.585938 117.128906 218.21875 118.789062 227.554688 122.070312 C 239.515625 85.964844 273.5625 60.382812 312.578125 60.382812 C 362.152344 60.382812 402.46875 100.738281 402.46875 150.328125 L 402.46875 670.5 C 402.46875 720.085938 362.152344 760.429688 312.578125 760.429688 " fill-opacity="1" fill-rule="nonzero"/></g><path fill="#ffffff" d="M 236.71875 340.171875 C 229.652344 340.171875 223.9375 334.457031 223.9375 327.390625 C 223.9375 273.242188 136.597656 268.921875 135.695312 268.886719 C 128.660156 268.582031 123.191406 262.628906 123.464844 255.578125 C 123.765625 248.511719 128.855469 242.703125 136.792969 243.335938 C 141.390625 243.53125 249.5 249.003906 249.5 327.390625 C 249.5 334.457031 243.78125 340.171875 236.71875 340.171875 " fill-opacity="1" fill-rule="nonzero"/><path fill="#ffffff" d="M 256.9375 532.402344 C 249.875 532.402344 244.160156 526.691406 244.160156 519.621094 C 244.160156 493.335938 253.117188 471.457031 270.816406 454.570312 C 312.253906 415.054688 387.164062 418.207031 390.285156 418.3125 C 397.351562 418.652344 402.765625 424.632812 402.441406 431.683594 C 402.117188 438.730469 396 444.441406 389.085938 443.859375 C 388.414062 443.9375 321.839844 441.183594 288.414062 473.121094 C 275.835938 485.15625 269.71875 500.367188 269.71875 519.621094 C 269.71875 526.691406 264.003906 532.402344 256.9375 532.402344 " fill-opacity="1" fill-rule="nonzero"/><g clip-path="url(#4ec56ecb62)"><path fill="#ffffff" d="M 456.910156 54.15625 C 452.042969 54.15625 448.074219 58.125 448.074219 63.007812 C 448.074219 67.886719 452.042969 71.855469 456.910156 71.855469 C 461.800781 71.855469 465.769531 67.886719 465.769531 63.007812 C 465.769531 58.125 461.800781 54.15625 456.910156 54.15625 Z M 456.910156 97.429688 C 437.933594 97.429688 422.515625 81.980469 422.515625 63.007812 C 422.515625 44.027344 437.933594 28.585938 456.910156 28.585938 C 475.878906 28.585938 491.335938 44.027344 491.335938 63.007812 C 491.335938 81.980469 475.878906 97.429688 456.910156 97.429688 " fill-opacity="1" fill-rule="nonzero"/></g><path fill="#ffffff" d="M 555.90625 121.210938 C 551.019531 121.210938 547.050781 125.179688 547.050781 130.0625 C 547.050781 134.941406 551.019531 138.917969 555.90625 138.917969 C 560.777344 138.917969 564.746094 134.941406 564.746094 130.0625 C 564.746094 125.179688 560.777344 121.210938 555.90625 121.210938 Z M 555.90625 164.484375 C 536.941406 164.484375 521.484375 149.039062 521.484375 130.0625 C 521.484375 111.082031 536.941406 95.640625 555.90625 95.640625 C 574.882812 95.640625 590.304688 111.082031 590.304688 130.0625 C 590.304688 149.039062 574.882812 164.484375 555.90625 164.484375 " fill-opacity="1" fill-rule="nonzero"/><path fill="#ffffff" d="M 657.707031 194.871094 C 652.839844 194.871094 648.871094 198.84375 648.871094 203.722656 C 648.871094 208.59375 652.839844 212.5625 657.707031 212.5625 C 662.597656 212.5625 666.566406 208.59375 666.566406 203.722656 C 666.566406 198.84375 662.597656 194.871094 657.707031 194.871094 Z M 657.707031 238.128906 C 638.734375 238.128906 623.308594 222.703125 623.308594 203.722656 C 623.308594 184.746094 638.734375 169.300781 657.707031 169.300781 C 676.675781 169.300781 692.125 184.746094 692.125 203.722656 C 692.125 222.703125 676.675781 238.128906 657.707031 238.128906 " fill-opacity="1" fill-rule="nonzero"/><g clip-path="url(#ce0cdf0add)"><path fill="#ffffff" d="M 728.921875 390.773438 C 724.03125 390.773438 720.058594 394.742188 720.058594 399.625 C 720.058594 404.511719 724.03125 408.480469 728.921875 408.480469 C 733.789062 408.480469 737.757812 404.511719 737.757812 399.625 C 737.757812 394.742188 733.789062 390.773438 728.921875 390.773438 Z M 728.921875 434.046875 C 709.953125 434.046875 694.496094 418.601562 694.496094 399.625 C 694.496094 380.644531 709.953125 365.203125 728.921875 365.203125 C 747.890625 365.203125 763.316406 380.644531 763.316406 399.625 C 763.316406 418.601562 747.890625 434.046875 728.921875 434.046875 " fill-opacity="1" fill-rule="nonzero"/></g><path fill="#ffffff" d="M 534.269531 343.796875 C 529.398438 343.796875 525.433594 347.765625 525.433594 352.644531 C 525.433594 357.527344 529.398438 361.496094 534.269531 361.496094 C 539.15625 361.496094 543.132812 357.527344 543.132812 352.644531 C 543.132812 347.765625 539.15625 343.796875 534.269531 343.796875 Z M 534.269531 387.066406 C 515.300781 387.066406 499.871094 371.625 499.871094 352.644531 C 499.871094 333.667969 515.300781 318.222656 534.269531 318.222656 C 553.238281 318.222656 568.691406 333.667969 568.691406 352.644531 C 568.691406 371.625 553.238281 387.066406 534.269531 387.066406 " fill-opacity="1" fill-rule="nonzero"/><path fill="#ffffff" d="M 642.40625 318.199219 C 637.539062 318.199219 633.570312 322.167969 633.570312 327.054688 C 633.570312 331.917969 637.539062 335.894531 642.40625 335.894531 C 647.292969 335.894531 651.261719 331.917969 651.261719 327.054688 C 651.261719 322.167969 647.292969 318.199219 642.40625 318.199219 Z M 642.40625 361.460938 C 623.429688 361.460938 608.007812 346.027344 608.007812 327.054688 C 608.007812 308.070312 623.429688 292.632812 642.40625 292.632812 C 661.375 292.632812 676.824219 308.070312 676.824219 327.054688 C 676.824219 346.027344 661.375 361.460938 642.40625 361.460938 " fill-opacity="1" fill-rule="nonzero"/><path fill="#ffffff" d="M 679.351562 497.007812 C 674.453125 497.007812 670.484375 500.980469 670.484375 505.863281 C 670.484375 510.742188 674.453125 514.710938 679.351562 514.710938 C 684.21875 514.710938 688.1875 510.742188 688.1875 505.863281 C 688.1875 500.980469 684.21875 497.007812 679.351562 497.007812 Z M 679.351562 540.285156 C 660.371094 540.285156 644.925781 524.835938 644.925781 505.863281 C 644.925781 486.882812 660.371094 471.441406 679.351562 471.441406 C 698.316406 471.441406 713.746094 486.882812 713.746094 505.863281 C 713.746094 524.835938 698.316406 540.285156 679.351562 540.285156 " fill-opacity="1" fill-rule="nonzero"/><path fill="#ffffff" d="M 579.324219 486.25 C 574.457031 486.25 570.488281 490.21875 570.488281 495.101562 C 570.488281 499.980469 574.457031 503.949219 579.324219 503.949219 C 584.191406 503.949219 588.160156 499.980469 588.160156 495.101562 C 588.160156 490.21875 584.191406 486.25 579.324219 486.25 Z M 579.324219 529.519531 C 560.355469 529.519531 544.925781 514.078125 544.925781 495.101562 C 544.925781 476.121094 560.355469 460.679688 579.324219 460.679688 C 598.296875 460.679688 613.722656 476.121094 613.722656 495.101562 C 613.722656 514.078125 598.296875 529.519531 579.324219 529.519531 " fill-opacity="1" fill-rule="nonzero"/><path fill="#ffffff" d="M 545.125 665.679688 L 545.375 665.679688 Z M 557.683594 674.433594 C 555.859375 674.433594 554.066406 674.996094 552.566406 676.082031 C 550.617188 677.464844 549.34375 679.5 548.972656 681.835938 C 548.570312 684.160156 549.121094 686.503906 550.492188 688.433594 C 553.339844 692.398438 558.90625 693.296875 562.847656 690.480469 C 564.773438 689.101562 566.046875 687.066406 566.417969 684.738281 C 566.820312 682.414062 566.265625 680.066406 564.894531 678.15625 C 563.5 676.207031 561.472656 674.933594 559.152344 674.5625 C 558.652344 674.46875 558.152344 674.433594 557.683594 674.433594 Z M 557.730469 717.679688 C 546.996094 717.679688 536.414062 712.683594 529.699219 703.296875 C 524.355469 695.835938 522.234375 686.71875 523.753906 677.644531 C 525.257812 668.578125 530.199219 660.625 537.6875 655.285156 C 545.171875 649.929688 554.183594 647.832031 563.34375 649.324219 C 572.410156 650.835938 580.351562 655.789062 585.691406 663.273438 C 591.03125 670.726562 593.15625 679.839844 591.65625 688.917969 C 590.128906 697.988281 585.191406 705.933594 577.726562 711.277344 C 571.660156 715.609375 564.667969 717.679688 557.730469 717.679688 " fill-opacity="1" fill-rule="nonzero"/><path fill="#ffffff" d="M 657.382812 571.40625 L 657.628906 571.40625 Z M 669.933594 580.164062 C 668.160156 580.164062 666.367188 580.695312 664.820312 581.808594 C 660.851562 584.644531 659.921875 590.183594 662.773438 594.167969 C 665.617188 598.152344 671.132812 599.003906 675.128906 596.203125 C 679.074219 593.378906 679.996094 587.824219 677.152344 583.859375 C 675.429688 581.441406 672.707031 580.164062 669.933594 580.164062 Z M 670.015625 623.410156 C 659.253906 623.410156 648.664062 618.414062 641.953125 609.023438 C 630.945312 593.566406 634.515625 572.035156 649.941406 561.003906 C 665.390625 550.003906 686.882812 553.550781 697.945312 568.984375 C 708.976562 584.425781 705.410156 605.960938 689.980469 617.011719 C 683.914062 621.335938 676.929688 623.410156 670.015625 623.410156 " fill-opacity="1" fill-rule="nonzero"/><g clip-path="url(#164fb86573)"><path fill="#ffffff" d="M 444.007812 739.746094 C 442.078125 741.132812 440.804688 743.164062 440.433594 745.484375 C 440.03125 747.816406 440.582031 750.167969 441.960938 752.089844 C 444.800781 756.058594 450.347656 756.988281 454.285156 754.152344 C 456.214844 752.78125 457.480469 750.730469 457.882812 748.410156 C 458.253906 746.070312 457.734375 743.726562 456.335938 741.792969 C 453.539062 737.816406 447.945312 736.921875 444.007812 739.746094 Z M 449.25 781.367188 C 447.320312 781.367188 445.429688 781.21875 443.507812 780.894531 C 434.445312 779.398438 426.5 774.441406 421.160156 766.960938 C 415.820312 759.492188 413.699219 750.378906 415.195312 741.300781 C 416.722656 732.242188 421.660156 724.296875 429.125 718.941406 C 429.125 718.941406 429.152344 718.941406 429.152344 718.925781 C 444.605469 707.890625 466.121094 711.5 477.152344 726.933594 C 482.492188 734.394531 484.59375 743.507812 483.097656 752.574219 C 481.597656 761.652344 476.652344 769.605469 469.167969 774.949219 C 463.25 779.171875 456.335938 781.367188 449.25 781.367188 " fill-opacity="1" fill-rule="nonzero"/></g><path fill="#ffffff" d="M 456.910156 216.511719 L 389.6875 216.511719 C 382.621094 216.511719 376.90625 210.789062 376.90625 203.722656 C 376.90625 196.65625 382.621094 190.941406 389.6875 190.941406 L 444.125 190.941406 L 444.125 84.640625 C 444.125 77.578125 449.847656 71.855469 456.910156 71.855469 C 463.976562 71.855469 469.6875 77.578125 469.6875 84.640625 L 469.6875 203.722656 C 469.6875 210.789062 463.976562 216.511719 456.910156 216.511719 " fill-opacity="1" fill-rule="nonzero"/><path fill="#ffffff" d="M 473.507812 284.402344 L 389.6875 284.402344 C 382.621094 284.402344 376.90625 278.683594 376.90625 271.617188 C 376.90625 264.550781 382.621094 258.835938 389.6875 258.835938 L 466.171875 258.835938 L 534.019531 142.25 C 537.558594 136.117188 545.398438 134.082031 551.492188 137.628906 C 557.585938 141.183594 559.652344 149.003906 556.082031 155.105469 L 484.539062 278.046875 C 482.273438 281.980469 478.050781 284.402344 473.507812 284.402344 " fill-opacity="1" fill-rule="nonzero"/><path fill="#ffffff" d="M 512.648438 365.429688 L 389.6875 365.429688 C 382.621094 365.429688 376.90625 359.707031 376.90625 352.644531 C 376.90625 345.578125 382.621094 339.863281 389.6875 339.863281 L 512.648438 339.863281 C 519.710938 339.863281 525.433594 345.578125 525.433594 352.644531 C 525.433594 359.707031 519.710938 365.429688 512.648438 365.429688 " fill-opacity="1" fill-rule="nonzero"/><path fill="#ffffff" d="M 574.503906 299.734375 C 571.113281 299.734375 567.867188 298.390625 565.46875 295.988281 L 495.773438 226.285156 C 490.78125 221.289062 490.78125 213.203125 495.773438 208.207031 C 500.773438 203.207031 508.855469 203.207031 513.851562 208.207031 L 574.503906 268.871094 L 633.363281 209.980469 C 638.359375 204.980469 646.449219 204.980469 651.4375 209.980469 C 656.433594 214.976562 656.433594 223.0625 651.4375 228.058594 L 583.542969 295.988281 C 581.144531 298.390625 577.902344 299.734375 574.503906 299.734375 " fill-opacity="1" fill-rule="nonzero"/><path fill="#ffffff" d="M 557.703125 507.882812 L 473.507812 507.882812 C 466.441406 507.882812 460.730469 502.167969 460.730469 495.101562 L 460.730469 467.636719 L 389.6875 467.636719 C 382.621094 467.636719 376.90625 461.910156 376.90625 454.847656 C 376.90625 447.78125 382.621094 442.066406 389.6875 442.066406 L 473.507812 442.066406 C 480.570312 442.066406 486.289062 447.78125 486.289062 454.847656 L 486.289062 482.316406 L 557.703125 482.316406 C 564.773438 482.316406 570.488281 488.03125 570.488281 495.101562 C 570.488281 502.167969 564.773438 507.882812 557.703125 507.882812 " fill-opacity="1" fill-rule="nonzero"/><path fill="#ffffff" d="M 545.125 678.46875 C 541.859375 678.46875 538.589844 677.21875 536.089844 674.722656 L 467.941406 606.554688 L 389.6875 606.554688 C 382.621094 606.554688 376.90625 600.832031 376.90625 593.765625 C 376.90625 586.699219 382.621094 580.984375 389.6875 580.984375 L 473.234375 580.984375 C 476.628906 580.984375 479.875 582.328125 482.273438 584.730469 L 554.164062 656.640625 C 559.152344 661.640625 559.152344 669.726562 554.164062 674.722656 C 551.667969 677.21875 548.394531 678.46875 545.125 678.46875 " fill-opacity="1" fill-rule="nonzero"/><path fill="#ffffff" d="M 509.179688 642.511719 C 505.90625 642.511719 502.644531 641.257812 500.144531 638.765625 C 495.148438 633.769531 495.148438 625.683594 500.144531 620.6875 L 544.75 576.066406 C 547.148438 573.667969 550.390625 572.324219 553.785156 572.324219 L 648.371094 572.324219 C 655.433594 572.324219 661.148438 578.035156 661.148438 585.101562 C 661.148438 592.167969 655.433594 597.890625 648.371094 597.890625 L 559.082031 597.890625 L 518.21875 638.765625 C 515.722656 641.257812 512.449219 642.511719 509.179688 642.511719 " fill-opacity="1" fill-rule="nonzero"/><path fill="#ffffff" d="M 694.351562 453.558594 L 525.902344 453.558594 C 522.511719 453.558594 519.265625 452.214844 516.867188 449.816406 L 481.617188 414.550781 L 389.6875 414.550781 C 382.621094 414.550781 376.90625 408.824219 376.90625 401.761719 C 376.90625 394.695312 382.621094 388.980469 389.6875 388.980469 L 486.910156 388.980469 C 490.308594 388.980469 493.550781 390.324219 495.949219 392.722656 L 531.199219 427.988281 L 689.058594 427.988281 L 707.859375 409.191406 C 712.847656 404.195312 720.9375 404.195312 725.925781 409.191406 C 730.917969 414.179688 730.917969 422.273438 725.925781 427.265625 L 703.382812 449.816406 C 700.988281 452.214844 697.746094 453.558594 694.351562 453.558594 " fill-opacity="1" fill-rule="nonzero"/><path fill="#ffffff" d="M 449.140625 738.144531 C 442.078125 738.144531 436.367188 732.425781 436.367188 725.359375 L 436.367188 664.933594 L 389.6875 664.933594 C 382.621094 664.933594 376.90625 659.210938 376.90625 652.144531 C 376.90625 645.078125 382.621094 639.363281 389.6875 639.363281 L 449.140625 639.363281 C 456.214844 639.363281 461.925781 645.078125 461.925781 652.144531 L 461.925781 725.359375 C 461.925781 732.425781 456.214844 738.144531 449.140625 738.144531 " fill-opacity="1" fill-rule="nonzero"/></svg>